<?xml version="1.0" encoding="UTF-8"?><svg id="Layer_1" xmlns="http://www.w3.org/2000/svg" width="250" height="200" viewBox="0 0 250 200"><defs><style>.cls-1{fill:#39c;}.cls-2{fill:aqua;}</style></defs><path class="cls-1" d="M213.9783,80.5629c-.2429-.1876-.4857-.3752-.7285-.5629h-27.2498v4h19.9832c1.4059-.8447,2.9428-1.3219,4.668-1.4304,1.6183-.1017,3.0951.3339,4.3488,1.1573v-2.7209c-.3506-.1108-.6929-.2524-1.0217-.4431Z"/><path class="cls-1" d="M213.992,121.5297c.2825-.3256.6342-.5687,1.008-.7773v-2.0602c-.0137.0045-.0269.0108-.0406.0152-.8823.2836-1.7994.3896-2.7182.3898-.4158.1194-.8446.1917-1.2776.1991-1.6051.0273-3.1277.1414-4.7137-.2812-.7207-.192-1.3433-.5535-1.872-1.015h-18.3778v4h27.5947c.1324-.157.2633-.3159.3973-.4703Z"/><rect class="cls-1" x="182" y="97" width="10" height="4"/><path class="cls-1" d="M17.5112,116.9043l1.7397-3.4199c3,2.9395,8.3398,5.0996,13.8599,5.0996,7.8594,0,11.2793-3.2998,11.2793-7.4395,0-11.5195-25.8589-4.4404-25.8589-19.9795,0-6.1797,4.7998-11.5195,15.4795-11.5195,4.7397,0,9.6597,1.3799,13.0195,3.7197l-1.5,3.54c-3.6001-2.3398-7.7998-3.48-11.5195-3.48-7.6797,0-11.0996,3.4199-11.0996,7.6196,0,11.5195,25.8589,4.5601,25.8589,19.8594,0,6.1797-4.9199,11.459-15.6592,11.459-6.2998,0-12.4795-2.2197-15.5996-5.459Z"/><path class="cls-1" d="M58.0703,104.0645v-24.0586h4.4399v23.8789c0,9.959,4.6802,14.5195,12.8394,14.5195,8.2197,0,12.8999-4.5605,12.8999-14.5195v-23.8789h4.3198v24.0586c0,12.0596-6.48,18.2988-17.2197,18.2988s-17.2793-6.2393-17.2793-18.2988Z"/><path class="cls-2" d="M121.2112,80h-15.2112v42h4v-13h0v-4h0v-21h10.9923c8.2739,0,12.6468,3.84,12.6468,10.5601,0,6.5999-4.3729,10.4399-12.6468,10.4399h-3.9923v4h4.2112c10.7765,0,17.3159-5.4486,17.3159-14.4695,0-9.082-6.5395-14.5305-17.3159-14.5305Z"/><path class="cls-1" d="M177.1084,122.0039l-9.5996-13.5c-1.0801.1201-2.1602.1807-3.3604.1807h-11.2793v13.3193h-4.4395v-41.998h15.7188c10.6797,0,17.1602,5.3994,17.1602,14.3994,0,6.5996-3.4805,11.2188-9.5996,13.1992l10.2588,14.3994h-4.8594ZM176.8682,94.4053c0-6.7197-4.4395-10.5596-12.8389-10.5596h-11.1602v21.0586h11.1602c8.3994,0,12.8389-3.8994,12.8389-10.499Z"/><path class="cls-1" d="M188.0898,101.0049c0-12.2397,9.3594-21.3594,22.0791-21.3594,12.5996,0,22.0186,9.0596,22.0186,21.3594s-9.4189,21.3584-22.0186,21.3584c-12.7197,0-22.0791-9.1191-22.0791-21.3584ZM227.748,101.0049c0-10.0195-7.5-17.3994-17.5791-17.3994-10.1396,0-17.6992,7.3799-17.6992,17.3994s7.5596,17.3994,17.6992,17.3994c10.0791,0,17.5791-7.3799,17.5791-17.3994Z"/><rect class="cls-2" x="117" y="98" width="4" height="11"/><rect class="cls-2" x="120.5" y="93.5" width="4" height="11" transform="translate(221.5 -23.5) rotate(90)"/><path class="cls-2" d="M120.1153,75.1512c0-5.817,4.4481-10.1512,10.4932-10.1512,5.988,0,10.4645,4.3056,10.4645,10.1512s-4.4764,10.1507-10.4645,10.1507c-6.0451,0-10.4932-4.3339-10.4932-10.1507ZM138.9631,75.1512c0-4.7618-3.5644-8.2692-8.3546-8.2692-4.8189,0-8.4117,3.5073-8.4117,8.2692s3.5927,8.2692,8.4117,8.2692c4.7902,0,8.3546-3.5073,8.3546-8.2692Z"/><path class="cls-1" d="M200.0908,85.3306c-.401.3389-.8462.6346-1.3295.8615-.1741.1927-.3475.3862-.5228.5775-.2015.4474-.5126.8645-.903,1.2513,4.2085,2.7833,6.8542,7.532,6.8542,13.214,0,5.5112-2.4978,10.1338-6.4875,12.9473,1.1083.6098,1.8987,1.7557,2.353,2.9815,5.0284-3.4503,8.1857-9.1411,8.1857-15.9288,0-6.772-3.1426-12.4514-8.15-15.9042Z"/><path class="cls-1" d="M221.8301,116.6661c.5175-.5175,1.0349-1.0349,1.5523-1.5524.4145-.4145.8504-.7261,1.2957-.9587-3.9954-2.8162-6.4976-7.4265-6.4976-12.9202,0-5.4297,2.445-9.9953,6.3589-12.8202-1.0112-.8347-1.7079-2.0229-1.9438-3.2632-5.1789,3.443-8.4119,9.2206-8.4119,16.0834,0,6.4904,2.8973,12.0044,7.5915,15.4975.0205-.0212.0338-.0451.0549-.0662Z"/></svg>